<?xml version="1.0" encoding="UTF-8" standalone="no"?>
<svg
   width="100%"
   height="100%"
   viewBox="0 0 256 256"
   version="1.1"
   xml:space="preserve"
   style="fill-rule:evenodd;clip-rule:evenodd;stroke-linejoin:round;stroke-miterlimit:2;"
   id="svg232"
   xmlns="http://www.w3.org/2000/svg"
   xmlns:svg="http://www.w3.org/2000/svg">
    <path
   id="path212"
   style="fill:#fffffc;fill-opacity:1;stroke:#000000;stroke-width:0.337164;stroke-opacity:1"
   d="M 32 8.0019531 C 18.754169 8.0019531 8 18.755125 8 32.001953 L 8 224.00195 C 8 237.24712 18.754169 248.00195 32 248.00195 L 224 248.00195 C 237.24583 248.00195 248 237.24712 248 224.00195 L 248 32.001953 C 248 18.755125 237.24583 8.0019531 224 8.0019531 L 32 8.0019531 z M 52.117188 54.59375 L 190.25195 54.59375 C 207.19387 54.59375 220.94922 68.348442 220.94922 85.291016 C 220.94922 102.23359 207.19387 115.98633 190.25195 115.98633 L 108.39453 115.98633 L 108.39453 126.83203 L 153.82617 126.83203 C 170.7684 126.83203 184.52148 140.58839 184.52148 157.5293 C 184.52148 174.47187 170.7684 188.22656 153.82617 188.22656 L 108.39453 188.22656 L 108.39453 209.91797 L 52.117188 209.91797 L 52.117188 193.64844 C 52.117188 184.66926 59.407537 177.37891 68.386719 177.37891 L 108.39453 177.37891 C 119.35026 177.37891 128.24414 168.4852 128.24414 157.5293 C 128.24414 146.5734 119.35026 137.67969 108.39453 137.67969 L 68.386719 137.67969 C 59.407537 137.67969 52.117188 130.38934 52.117188 121.41016 C 52.117188 112.43097 59.407537 105.14062 68.386719 105.14062 L 144.82031 105.14062 C 155.77604 105.14062 164.67187 96.246914 164.67188 85.291016 C 164.67188 74.335117 155.77604 65.439453 144.82031 65.439453 L 52.117188 65.439453 L 52.117188 54.59375 z " />
    <defs
   id="defs230">
        <radialGradient
   id="_Radial1"
   cx="0"
   cy="0"
   r="1"
   gradientUnits="userSpaceOnUse"
   gradientTransform="matrix(657.15358,813.73921,-813.73921,657.15358,18570,19611.874)"><stop
     offset="0"
     style="stop-color:rgb(250,181,36);stop-opacity:1"
     id="stop223" /><stop
     offset="0.5"
     style="stop-color:rgb(208,43,167);stop-opacity:1"
     id="stop225" /><stop
     offset="1"
     style="stop-color:rgb(157,51,167);stop-opacity:1"
     id="stop227" /></radialGradient>
    
        
    
            
        
                    
                
                    
                
                
                
            </defs>
</svg>
