<?xml version="1.0" encoding="UTF-8" standalone="no"?>
<!DOCTYPE svg PUBLIC "-//W3C//DTD SVG 1.1//EN" "http://www.w3.org/Graphics/SVG/1.1/DTD/svg11.dtd">
<svg width="100%" height="100%" viewBox="0 0 256 256" version="1.1" xmlns="http://www.w3.org/2000/svg" xmlns:xlink="http://www.w3.org/1999/xlink" xml:space="preserve" xmlns:serif="http://www.serif.com/" style="fill-rule:evenodd;clip-rule:evenodd;stroke-linejoin:round;stroke-miterlimit:2;">
    <g transform="matrix(1,0,0,1,-20376.796471,-25076.363733)">
        <g transform="matrix(1,0,0,1,12384.927455,11352.18408)">
            <g id="Friction_Icon_1" transform="matrix(1.773342,0,0,1.773342,-7145.912057,-10598.994944)">
                <g id="Background" transform="matrix(0.202805,0,0,0.202805,4770.218734,9727.449622)">
                    <path d="M19281.819,19738.182L19281.819,20307.637C19281.819,20346.923 19249.923,20378.819 19210.637,20378.819L18641.182,20378.819C18601.896,20378.819 18570,20346.923 18570,20307.637L18570,19738.182C18570,19698.896 18601.896,19667 18641.182,19667L19210.637,19667C19249.923,19667 19281.819,19698.896 19281.819,19738.182Z" style="fill:url(#_Radial1);"/>
                </g>
                <g id="F" transform="matrix(0.250131,0,0,0.226554,8428.77302,12624.410931)">
                    <path d="M575.124,5268L671.333,5268C697.679,5268 719.069,5244.384 719.069,5215.297C719.069,5186.209 697.679,5162.593 671.333,5162.593L575.124,5162.593C553.531,5162.593 536,5143.238 536,5119.398C536,5095.558 553.531,5076.203 575.124,5076.203L758.931,5076.203C785.277,5076.203 806.667,5052.588 806.667,5023.5C806.667,4994.412 785.277,4970.797 758.931,4970.797L536,4970.797L536,4942L868.182,4942C908.923,4942 942,4978.519 942,5023.5C942,5068.481 908.923,5105 868.182,5105L671.333,5105L671.333,5133.797L780.584,5133.797C821.326,5133.797 854.402,5170.316 854.402,5215.297C854.402,5260.278 821.326,5296.797 780.584,5296.797L671.333,5296.797L671.333,5354.39L536,5354.39L536,5311.195C536,5287.355 553.531,5268 575.124,5268Z" style="fill:rgb(42,1,98);"/>
                </g>
            </g>
        </g>
    </g>
    <defs>
        <radialGradient id="_Radial1" cx="0" cy="0" r="1" gradientUnits="userSpaceOnUse" gradientTransform="matrix(657.153577,813.739213,-813.739213,657.153577,18570,19611.873588)"><stop offset="0" style="stop-color:rgb(250,181,36);stop-opacity:1"/><stop offset="0.5" style="stop-color:rgb(208,43,167);stop-opacity:1"/><stop offset="1" style="stop-color:rgb(157,51,167);stop-opacity:1"/></radialGradient>
    </defs>
</svg>
